<?xml version="1.0" standalone="no"?>
<!DOCTYPE svg PUBLIC "-//W3C//DTD SVG 20010904//EN"
 "http://www.w3.org/TR/2001/REC-SVG-20010904/DTD/svg10.dtd">
<svg version="1.0" xmlns="http://www.w3.org/2000/svg"
 width="240.000000pt" height="105.000000pt" viewBox="0 0 240.000000 105.000000"
 preserveAspectRatio="xMidYMid meet">

<g transform="translate(0.000000,105.000000) scale(0.100000,-0.100000)"
fill="#000000" stroke="none">
<path d="M86 1009 c44 -47 99 -75 204 -105 52 -15 109 -33 125 -40 28 -12 24
-13 -52 -14 -46 0 -83 -4 -83 -8 0 -15 75 -80 115 -100 22 -11 85 -32 139 -46
55 -15 102 -29 105 -31 2 -3 -28 -5 -67 -5 -41 0 -72 -4 -72 -10 0 -20 83 -90
136 -115 30 -14 86 -33 125 -42 81 -18 144 -56 242 -149 l65 -61 -39 -39 -39
-40 45 -38 c45 -37 46 -37 71 -21 l26 17 -7 -32 c-6 -27 -2 -37 26 -66 18 -19
37 -34 42 -34 5 0 27 14 49 31 40 32 42 39 21 96 -5 15 -3 15 19 -4 13 -13 29
-23 34 -23 6 0 28 18 49 40 l40 41 -40 35 -40 34 75 70 c92 85 176 136 249
151 98 19 137 38 202 97 l63 57 -85 5 -84 5 70 22 c39 12 96 27 127 33 48 9
68 20 113 62 30 27 55 54 55 59 0 5 -35 9 -77 10 l-78 0 44 20 c25 11 74 27
110 36 89 22 143 48 193 94 l43 38 -320 1 -321 0 -187 -197 -186 -198 -1 -87
0 -86 -65 -57 c-72 -64 -63 -65 -148 11 l-47 42 0 86 0 87 -191 200 -191 199
-316 0 -316 0 30 -31z"/>
<path d="M1120 497 c0 -24 9 -42 33 -65 18 -18 37 -32 41 -32 4 0 26 14 47 31
33 26 39 37 39 67 l0 37 -43 -48 -42 -49 -34 46 c-19 25 -36 46 -38 46 -2 0
-3 -15 -3 -33z"/>
</g>
</svg>
